<svg xmlns="http://www.w3.org/2000/svg" viewBox="0 0 100 30" fill="none">
  <path d="M25.5 4.5c-1.2 0-2.3.2-3.3.6-1 .4-1.8 1-2.4 1.7-.6.7-1 1.6-1.2 2.6L15 22.5h4.5l2.1-9.3c.1-.4.3-.7.6-1 .3-.3.7-.4 1.2-.4.5 0 .9.1 1.2.4.3.3.5.6.6 1l2.1 9.3h4.5l-2.6-11.7c-.2-1-.6-1.9-1.2-2.6-.6-.7-1.4-1.3-2.4-1.7-1-.4-2.1-.6-3.3-.6zm15 0c-1.5 0-2.8.3-3.9.9-1.1.6-1.9 1.4-2.4 2.4-.5 1-.7 2.1-.6 3.3l1.5 8.4h4.5l-1.5-8.4c0-.4.1-.7.3-1 .2-.3.5-.5.9-.6.4-.1.8-.2 1.2-.2.4 0 .8.1 1.2.2.4.1.7.3.9.6.2.3.3.6.3 1l-1.5 8.4h4.5l-1.5-8.4c.1-1.2-.1-2.3-.6-3.3-.5-1-1.3-1.8-2.4-2.4-1.1-.6-2.4-.9-3.9-.9z" fill="#003087"/>
  <path d="M60 4.5h-4.5v18h4.5V4.5zm15 0c-1.2 0-2.3.2-3.3.6-1 .4-1.8 1-2.4 1.7-.6.7-1 1.6-1.2 2.6L69 22.5h4.5l2.1-9.3c.1-.4.3-.7.6-1 .3-.3.7-.4 1.2-.4.5 0 .9.1 1.2.4.3.3.5.6.6 1l2.1 9.3H85l-2.6-11.7c-.2-1-.6-1.9-1.2-2.6-.6-.7-1.4-1.3-2.4-1.7-1-.4-2.1-.6-3.3-.6z" fill="#009CDE"/>
</svg>

