<svg xmlns="http://www.w3.org/2000/svg" viewBox="0 0 100 40" fill="none">
  <rect width="100" height="40" rx="4" fill="#1434CB"/>
  <path d="M42.5 12.5h-5l-3.5 15h5l3.5-15zm12.5 9.7c0-3.7-5-2.2-5-3.2 0-.4.5-.8 1.5-.9 1.3-.1 2.3.1 3.1.5l.6-2.7c-.8-.3-2-.5-3.4-.5-3.5 0-6 1.8-6 4.4 0 1.9 1.7 3 3 3.6 1.3.6 1.8 1 1.8 1.5 0 .8-1.1 1.2-2.1 1.2-1.8 0-2.8-.4-3.6-.8l-.6 2.8c.8.3 2.3.6 4.2.6 3.7 0 6.1-1.8 6.1-4.6zm15.2-9.7l-3.5 15h-4.2l3.5-15h4.2zm8.3 0h-3.3c-1 0-1.7.6-2 1.4l-5.8 13.6h5l.8-2.2h6.1l.5 2.2h4.5l-3.8-15zm-6.1 9.6l2.5-6.9.6 6.9h-3.1z" fill="#fff"/>
</svg>

